<mxfile host="Electron" agent="Mozilla/5.0 (Windows NT 10.0; Win64; x64) AppleWebKit/537.36 (KHTML, like Gecko) draw.io/26.2.15 Chrome/134.0.6998.205 Electron/35.2.1 Safari/537.36" version="26.2.15">
  <diagram name="Page-1" id="2ca16b54-16f6-2749-3443-fa8db7711227">
    <mxGraphModel dx="9187" dy="7417" grid="1" gridSize="10" guides="1" tooltips="1" connect="1" arrows="1" fold="1" page="1" pageScale="1" pageWidth="1100" pageHeight="850" background="none" math="0" shadow="1">
      <root>
        <mxCell id="0" />
        <mxCell id="1" parent="0" />
        <mxCell id="4h8rwMEjscWDVEq-1A-V-229" value="" style="rounded=0;whiteSpace=wrap;html=1;fillColor=#66B2FF;labelBorderColor=none;labelBackgroundColor=none;strokeColor=#000099;" parent="1" vertex="1">
          <mxGeometry x="-168.14" y="-22.649999999999864" width="490" height="330" as="geometry" />
        </mxCell>
        <mxCell id="5GJWT2BgU9dCmbnouzlv-65" value="" style="rounded=0;whiteSpace=wrap;html=1;fillColor=#66B2FF;strokeColor=#000099;" parent="1" vertex="1">
          <mxGeometry x="1394.63" y="-540" width="590" height="390" as="geometry" />
        </mxCell>
        <mxCell id="2ed32ef02a7f4228-2" value="&lt;div style=&quot;text-align: center; box-sizing: border-box; width: 100%; background-image: initial; background-position: initial; background-size: initial; background-repeat: initial; background-attachment: initial; background-origin: initial; background-clip: initial; padding: 2px;&quot;&gt;&lt;b&gt;&lt;font style=&quot;font-size: 14px;&quot;&gt;&lt;u&gt;Клиент&lt;/u&gt;&lt;br&gt;&lt;/font&gt;&lt;br&gt;&lt;/b&gt;&lt;b&gt;&lt;table style=&quot;border: 1px solid rgb(0, 0, 0); border-collapse: collapse;&quot; border=&quot;1&quot;&gt;&lt;tbody&gt;&lt;tr&gt;&lt;td&gt;&lt;font face=&quot;Helvetica&quot;&gt;client_id&lt;/font&gt;&lt;/td&gt;&lt;td&gt;&lt;span style=&quot;font-weight: 400;&quot;&gt;&lt;font face=&quot;Helvetica&quot;&gt;UUID&lt;/font&gt;&lt;/span&gt;&lt;/td&gt;&lt;/tr&gt;&lt;tr&gt;&lt;td&gt;&lt;font face=&quot;Helvetica&quot;&gt;registration_date&lt;/font&gt;&lt;/td&gt;&lt;td&gt;&lt;span style=&quot;font-weight: 400;&quot;&gt;&lt;font face=&quot;Helvetica&quot;&gt;DATE&lt;/font&gt;&lt;/span&gt;&lt;/td&gt;&lt;/tr&gt;&lt;tr&gt;&lt;td&gt;&lt;font face=&quot;Helvetica&quot;&gt;login&lt;/font&gt;&lt;/td&gt;&lt;td&gt;&lt;span style=&quot;font-weight: 400;&quot;&gt;&lt;font face=&quot;Helvetica&quot;&gt;VARCHAR(50)&lt;/font&gt;&lt;/span&gt;&lt;/td&gt;&lt;/tr&gt;&lt;tr&gt;&lt;td&gt;&lt;font face=&quot;Helvetica&quot;&gt;password_hash&lt;/font&gt;&lt;/td&gt;&lt;td&gt;&lt;span style=&quot;font-weight: 400;&quot;&gt;&lt;font face=&quot;Helvetica&quot;&gt;VARCHAR(64)&lt;/font&gt;&lt;/span&gt;&lt;/td&gt;&lt;/tr&gt;&lt;tr&gt;&lt;td&gt;&lt;font face=&quot;Helvetica&quot;&gt;full_name&lt;/font&gt;&lt;/td&gt;&lt;td&gt;&lt;span style=&quot;font-weight: 400;&quot;&gt;&lt;font face=&quot;Helvetica&quot;&gt;VARCHAR(100)&lt;/font&gt;&lt;/span&gt;&lt;/td&gt;&lt;/tr&gt;&lt;tr&gt;&lt;td&gt;&lt;font face=&quot;Helvetica&quot;&gt;avatar_url&lt;/font&gt;&lt;/td&gt;&lt;td&gt;&lt;span style=&quot;font-weight: 400;&quot;&gt;&lt;font face=&quot;Helvetica&quot;&gt;VARCHAR(200)&lt;/font&gt;&lt;/span&gt;&lt;/td&gt;&lt;/tr&gt;&lt;tr&gt;&lt;td&gt;&lt;font face=&quot;Helvetica&quot;&gt;phone&lt;/font&gt;&lt;/td&gt;&lt;td&gt;&lt;span style=&quot;font-weight: 400;&quot;&gt;&lt;font face=&quot;Helvetica&quot;&gt;VARCHAR(20)&lt;/font&gt;&lt;/span&gt;&lt;/td&gt;&lt;/tr&gt;&lt;/tbody&gt;&lt;/table&gt;&lt;/b&gt;&lt;/div&gt;&lt;table border=&quot;1&quot; style=&quot;width: 100%; font-size: 1em; border: 1px solid rgb(0, 0, 0); border-collapse: collapse;&quot; cellpadding=&quot;2&quot; cellspacing=&quot;0&quot;&gt;&lt;tbody&gt;&lt;/tbody&gt;&lt;/table&gt;" style="verticalAlign=top;align=left;overflow=fill;html=1;rounded=0;shadow=0;comic=0;labelBackgroundColor=#33FF99;strokeWidth=1;fontFamily=Verdana;fontSize=12;whiteSpace=wrap;labelBorderColor=#00994D;strokeColor=#00994D;fillColor=#33FF99;" parent="1" vertex="1">
          <mxGeometry x="-160" y="-1640" width="220" height="220" as="geometry" />
        </mxCell>
        <mxCell id="5GJWT2BgU9dCmbnouzlv-2" value="&lt;div style=&quot;box-sizing: border-box; width: 100%; background-image: initial; background-position: initial; background-size: initial; background-repeat: initial; background-attachment: initial; background-origin: initial; background-clip: initial; padding: 2px;&quot;&gt;&lt;div style=&quot;&quot;&gt;&lt;div style=&quot;text-align: center;&quot;&gt;&lt;b style=&quot;color: light-dark(rgb(0, 0, 0), rgb(255, 255, 255));&quot;&gt;&lt;font style=&quot;font-size: 14px;&quot;&gt;&lt;u&gt;Курьер&lt;/u&gt;&lt;/font&gt;&lt;/b&gt;&lt;/div&gt;&lt;div style=&quot;text-align: center;&quot;&gt;&lt;b&gt;&lt;br&gt;&lt;/b&gt;&lt;/div&gt;&lt;div style=&quot;text-align: center;&quot;&gt;&lt;b&gt;&lt;table style=&quot;border: 1px solid rgb(0, 0, 0); border-collapse: collapse;&quot; border=&quot;1&quot;&gt;&lt;tbody&gt;&lt;tr&gt;&lt;td&gt;&lt;font face=&quot;Helvetica&quot;&gt;courier_id&lt;/font&gt;&lt;/td&gt;&lt;td&gt;&lt;span style=&quot;font-weight: 400;&quot;&gt;&lt;font face=&quot;Helvetica&quot;&gt;UUID&lt;/font&gt;&lt;/span&gt;&lt;/td&gt;&lt;/tr&gt;&lt;tr&gt;&lt;td&gt;&lt;font face=&quot;Helvetica&quot;&gt;admin_id&lt;/font&gt;&lt;/td&gt;&lt;td&gt;&lt;span style=&quot;font-weight: 400;&quot;&gt;&lt;font face=&quot;Helvetica&quot;&gt;UUID&lt;/font&gt;&lt;/span&gt;&lt;/td&gt;&lt;/tr&gt;&lt;tr&gt;&lt;td&gt;&lt;font face=&quot;Helvetica&quot;&gt;registration_date&lt;/font&gt;&lt;/td&gt;&lt;td&gt;&lt;span style=&quot;font-weight: 400;&quot;&gt;&lt;font face=&quot;Helvetica&quot;&gt;DATE&lt;/font&gt;&lt;/span&gt;&lt;/td&gt;&lt;/tr&gt;&lt;tr&gt;&lt;td&gt;&lt;font face=&quot;Helvetica&quot;&gt;login&lt;/font&gt;&lt;/td&gt;&lt;td&gt;&lt;span style=&quot;font-weight: 400;&quot;&gt;&lt;font face=&quot;Helvetica&quot;&gt;VARCHAR(50)&lt;/font&gt;&lt;/span&gt;&lt;/td&gt;&lt;/tr&gt;&lt;tr&gt;&lt;td&gt;&lt;font face=&quot;Helvetica&quot;&gt;password_hash&lt;/font&gt;&lt;/td&gt;&lt;td&gt;&lt;span style=&quot;font-weight: 400;&quot;&gt;&lt;font face=&quot;Helvetica&quot;&gt;VARCHAR(64)&lt;/font&gt;&lt;/span&gt;&lt;/td&gt;&lt;/tr&gt;&lt;tr&gt;&lt;td&gt;&lt;font face=&quot;Helvetica&quot;&gt;full_name&lt;/font&gt;&lt;/td&gt;&lt;td&gt;&lt;span style=&quot;font-weight: 400;&quot;&gt;&lt;font face=&quot;Helvetica&quot;&gt;VARCHAR(100)&lt;/font&gt;&lt;/span&gt;&lt;/td&gt;&lt;/tr&gt;&lt;tr&gt;&lt;td&gt;&lt;font face=&quot;Helvetica&quot;&gt;avatar_url&lt;/font&gt;&lt;/td&gt;&lt;td&gt;&lt;span style=&quot;font-weight: 400;&quot;&gt;&lt;font face=&quot;Helvetica&quot;&gt;VARCHAR(200)&lt;/font&gt;&lt;/span&gt;&lt;/td&gt;&lt;/tr&gt;&lt;tr&gt;&lt;td&gt;&lt;font face=&quot;Helvetica&quot;&gt;phone&lt;/font&gt;&lt;/td&gt;&lt;td&gt;&lt;span style=&quot;font-weight: 400;&quot;&gt;&lt;font face=&quot;Helvetica&quot;&gt;VARCHAR(20)&lt;/font&gt;&lt;/span&gt;&lt;/td&gt;&lt;/tr&gt;&lt;tr&gt;&lt;td&gt;&lt;font face=&quot;Helvetica&quot;&gt;telegram_id&lt;/font&gt;&lt;/td&gt;&lt;td&gt;&lt;span style=&quot;font-weight: 400;&quot;&gt;&lt;font face=&quot;Helvetica&quot;&gt;VARCHAR(50)&lt;/font&gt;&lt;/span&gt;&lt;/td&gt;&lt;/tr&gt;&lt;tr&gt;&lt;td&gt;&lt;font face=&quot;Helvetica&quot;&gt;vehicle_type&lt;/font&gt;&lt;/td&gt;&lt;td&gt;&lt;span style=&quot;font-weight: 400;&quot;&gt;&lt;font face=&quot;Helvetica&quot;&gt;VARCHAR(50)&lt;/font&gt;&lt;/span&gt;&lt;/td&gt;&lt;/tr&gt;&lt;tr&gt;&lt;td&gt;&lt;font face=&quot;Helvetica&quot;&gt;license_plate&lt;/font&gt;&lt;/td&gt;&lt;td&gt;&lt;span style=&quot;font-weight: 400;&quot;&gt;&lt;font face=&quot;Helvetica&quot;&gt;VARCHAR(15)&lt;/font&gt;&lt;/span&gt;&lt;/td&gt;&lt;/tr&gt;&lt;/tbody&gt;&lt;/table&gt;&lt;/b&gt;&lt;/div&gt;&lt;table cellspacing=&quot;0&quot; cellpadding=&quot;2&quot; border=&quot;1&quot; style=&quot;color: light-dark(rgb(0, 0, 0), rgb(255, 255, 255)); font-size: 1em; text-align: left; width: 100%; border: 1px solid rgb(0, 0, 0); border-collapse: collapse;&quot;&gt;&lt;tbody&gt;&lt;/tbody&gt;&lt;/table&gt;&lt;/div&gt;&lt;/div&gt;" style="verticalAlign=top;align=left;overflow=fill;html=1;rounded=0;shadow=0;comic=0;labelBackgroundColor=#33FF99;strokeWidth=1;fontFamily=Verdana;fontSize=12;labelBorderColor=#009900;whiteSpace=wrap;strokeColor=#00994D;fillColor=#33FF99;" parent="1" vertex="1">
          <mxGeometry x="2200" y="-1110" width="250" height="260" as="geometry" />
        </mxCell>
        <mxCell id="5GJWT2BgU9dCmbnouzlv-3" value="&lt;div style=&quot;box-sizing: border-box; width: 100%; background-image: initial; background-position: initial; background-size: initial; background-repeat: initial; background-attachment: initial; background-origin: initial; background-clip: initial; padding: 2px;&quot;&gt;&lt;div style=&quot;text-align: center;&quot;&gt;&lt;b&gt;&lt;font style=&quot;font-size: 14px;&quot;&gt;&lt;u&gt;Администратор&lt;/u&gt;&lt;/font&gt;&lt;br&gt;&lt;/b&gt;&lt;br&gt;&lt;/div&gt;&lt;div style=&quot;text-align: center;&quot;&gt;&lt;table align=&quot;center&quot; style=&quot;font-weight: 700; border: 1px solid rgb(0, 0, 0); border-collapse: collapse;&quot; border=&quot;1&quot;&gt;&lt;tbody&gt;&lt;tr&gt;&lt;td&gt;&lt;font face=&quot;Helvetica&quot;&gt;admin_id&lt;/font&gt;&lt;/td&gt;&lt;td&gt;&lt;span style=&quot;font-weight: 400;&quot;&gt;&lt;font face=&quot;Helvetica&quot;&gt;UUID&lt;/font&gt;&lt;/span&gt;&lt;/td&gt;&lt;/tr&gt;&lt;tr&gt;&lt;td&gt;&lt;font face=&quot;Helvetica&quot;&gt;registration_date&lt;/font&gt;&lt;/td&gt;&lt;td&gt;&lt;span style=&quot;font-weight: 400;&quot;&gt;&lt;font face=&quot;Helvetica&quot;&gt;DATE&lt;/font&gt;&lt;/span&gt;&lt;/td&gt;&lt;/tr&gt;&lt;tr&gt;&lt;td&gt;&lt;font face=&quot;Helvetica&quot;&gt;login&lt;/font&gt;&lt;/td&gt;&lt;td&gt;&lt;span style=&quot;font-weight: 400;&quot;&gt;&lt;font face=&quot;Helvetica&quot;&gt;VARCHAR(50)&lt;/font&gt;&lt;/span&gt;&lt;/td&gt;&lt;/tr&gt;&lt;tr&gt;&lt;td&gt;&lt;font face=&quot;Helvetica&quot;&gt;password_hash&lt;/font&gt;&lt;/td&gt;&lt;td&gt;&lt;span style=&quot;font-weight: 400;&quot;&gt;&lt;font face=&quot;Helvetica&quot;&gt;VARCHAR(64)&lt;/font&gt;&lt;/span&gt;&lt;/td&gt;&lt;/tr&gt;&lt;tr&gt;&lt;td&gt;&lt;font face=&quot;Helvetica&quot;&gt;full_name&lt;/font&gt;&lt;/td&gt;&lt;td&gt;&lt;span style=&quot;font-weight: 400;&quot;&gt;&lt;font face=&quot;Helvetica&quot;&gt;VARCHAR(100)&lt;/font&gt;&lt;/span&gt;&lt;/td&gt;&lt;/tr&gt;&lt;tr&gt;&lt;td&gt;&lt;font face=&quot;Helvetica&quot;&gt;avatar_url&lt;/font&gt;&lt;/td&gt;&lt;td&gt;&lt;span style=&quot;font-weight: 400;&quot;&gt;&lt;font face=&quot;Helvetica&quot;&gt;VARCHAR(200)&lt;/font&gt;&lt;/span&gt;&lt;/td&gt;&lt;/tr&gt;&lt;tr&gt;&lt;td&gt;&lt;font face=&quot;Helvetica&quot;&gt;phone&lt;/font&gt;&lt;/td&gt;&lt;td&gt;&lt;span style=&quot;font-weight: 400;&quot;&gt;&lt;font face=&quot;Helvetica&quot;&gt;VARCHAR(20)&lt;/font&gt;&lt;/span&gt;&lt;/td&gt;&lt;/tr&gt;&lt;tr&gt;&lt;td&gt;&lt;font face=&quot;Helvetica&quot;&gt;telegram_id&lt;/font&gt;&lt;/td&gt;&lt;td&gt;&lt;span style=&quot;font-weight: normal;&quot;&gt;&lt;font face=&quot;Helvetica&quot;&gt;VARCHAR(50)&lt;/font&gt;&lt;/span&gt;&lt;/td&gt;&lt;/tr&gt;&lt;tr&gt;&lt;td&gt;&lt;font face=&quot;Helvetica&quot;&gt;email&lt;/font&gt;&lt;/td&gt;&lt;td&gt;&lt;span style=&quot;font-weight: normal;&quot;&gt;&lt;font face=&quot;Helvetica&quot;&gt;VARCHAR(100)&lt;/font&gt;&lt;/span&gt;&lt;/td&gt;&lt;/tr&gt;&lt;/tbody&gt;&lt;/table&gt;&lt;/div&gt;&lt;/div&gt;" style="verticalAlign=top;align=left;overflow=fill;html=1;rounded=0;shadow=0;comic=0;labelBackgroundColor=#33FF99;strokeWidth=1;fontFamily=Verdana;fontSize=12;labelBorderColor=#009900;whiteSpace=wrap;strokeColor=#00994D;fillColor=#33FF99;" parent="1" vertex="1">
          <mxGeometry x="2600" y="-810" width="230" height="220" as="geometry" />
        </mxCell>
        <mxCell id="5GJWT2BgU9dCmbnouzlv-4" value="&lt;div style=&quot;box-sizing: border-box; width: 100%; background-image: initial; background-position: initial; background-size: initial; background-repeat: initial; background-attachment: initial; background-origin: initial; background-clip: initial; padding: 2px;&quot;&gt;&lt;div style=&quot;text-align: center;&quot;&gt;&lt;b&gt;&lt;font style=&quot;font-size: 14px;&quot;&gt;&lt;u&gt;Диспетчер&lt;br&gt;&lt;/u&gt;&lt;/font&gt;&lt;br&gt;&lt;/b&gt;&lt;/div&gt;&lt;div style=&quot;text-align: center;&quot;&gt;&lt;b&gt;&lt;table style=&quot;border: 1px solid rgb(0, 0, 0); border-collapse: collapse;&quot; border=&quot;1&quot;&gt;&lt;tbody&gt;&lt;tr&gt;&lt;td&gt;&lt;font face=&quot;Helvetica&quot;&gt;dispatcher_id&lt;/font&gt;&lt;/td&gt;&lt;td&gt;&lt;span style=&quot;font-weight: 400;&quot;&gt;&lt;font face=&quot;Helvetica&quot;&gt;UUID&lt;/font&gt;&lt;/span&gt;&lt;/td&gt;&lt;/tr&gt;&lt;tr&gt;&lt;td&gt;&lt;font face=&quot;Helvetica&quot;&gt;admin_id&lt;/font&gt;&lt;/td&gt;&lt;td&gt;&lt;span style=&quot;font-weight: 400;&quot;&gt;&lt;font face=&quot;Helvetica&quot;&gt;UUID&lt;/font&gt;&lt;/span&gt;&lt;/td&gt;&lt;/tr&gt;&lt;tr&gt;&lt;td&gt;&lt;font face=&quot;Helvetica&quot;&gt;registration_date&lt;/font&gt;&lt;/td&gt;&lt;td&gt;&lt;span style=&quot;font-weight: 400;&quot;&gt;&lt;font face=&quot;Helvetica&quot;&gt;DATE&lt;/font&gt;&lt;/span&gt;&lt;/td&gt;&lt;/tr&gt;&lt;tr&gt;&lt;td&gt;&lt;font face=&quot;Helvetica&quot;&gt;login&lt;/font&gt;&lt;/td&gt;&lt;td&gt;&lt;span style=&quot;font-weight: 400;&quot;&gt;&lt;font face=&quot;Helvetica&quot;&gt;VARCHAR(50)&lt;/font&gt;&lt;/span&gt;&lt;/td&gt;&lt;/tr&gt;&lt;tr&gt;&lt;td&gt;&lt;font face=&quot;Helvetica&quot;&gt;password_hash&lt;/font&gt;&lt;/td&gt;&lt;td&gt;&lt;span style=&quot;font-weight: 400;&quot;&gt;&lt;font face=&quot;Helvetica&quot;&gt;VARCHAR(64)&lt;/font&gt;&lt;/span&gt;&lt;/td&gt;&lt;/tr&gt;&lt;tr&gt;&lt;td&gt;&lt;font face=&quot;Helvetica&quot;&gt;phone&lt;/font&gt;&lt;/td&gt;&lt;td&gt;&lt;span style=&quot;font-weight: 400;&quot;&gt;&lt;font face=&quot;Helvetica&quot;&gt;VARCHAR(20)&lt;/font&gt;&lt;/span&gt;&lt;/td&gt;&lt;/tr&gt;&lt;tr&gt;&lt;td&gt;&lt;font face=&quot;Helvetica&quot;&gt;telegram_id&lt;/font&gt;&lt;/td&gt;&lt;td&gt;&lt;span style=&quot;font-weight: 400;&quot;&gt;&lt;font face=&quot;Helvetica&quot;&gt;VARCHAR(50)&lt;/font&gt;&lt;/span&gt;&lt;/td&gt;&lt;/tr&gt;&lt;tr&gt;&lt;td&gt;&lt;font face=&quot;Helvetica&quot;&gt;email&lt;/font&gt;&lt;/td&gt;&lt;td&gt;&lt;span style=&quot;font-weight: 400;&quot;&gt;&lt;font face=&quot;Helvetica&quot;&gt;VARCHAR(100)&lt;/font&gt;&lt;/span&gt;&lt;/td&gt;&lt;/tr&gt;&lt;tr&gt;&lt;td&gt;&lt;font face=&quot;Helvetica&quot;&gt;full_name&lt;/font&gt;&lt;/td&gt;&lt;td&gt;&lt;span style=&quot;font-weight: 400;&quot;&gt;&lt;font face=&quot;Helvetica&quot;&gt;VARCHAR(100)&lt;/font&gt;&lt;/span&gt;&lt;/td&gt;&lt;/tr&gt;&lt;tr&gt;&lt;td&gt;&lt;font face=&quot;Helvetica&quot;&gt;avatar_url&lt;/font&gt;&lt;/td&gt;&lt;td&gt;&lt;span style=&quot;font-weight: 400;&quot;&gt;&lt;font face=&quot;Helvetica&quot;&gt;VARCHAR(200)&lt;/font&gt;&lt;/span&gt;&lt;/td&gt;&lt;/tr&gt;&lt;/tbody&gt;&lt;/table&gt;&lt;br&gt;&lt;/b&gt;&lt;table cellspacing=&quot;0&quot; cellpadding=&quot;2&quot; border=&quot;1&quot; style=&quot;color: light-dark(rgb(0, 0, 0), rgb(255, 255, 255)); font-size: 1em; text-align: left; width: 100%; border: 1px solid rgb(0, 0, 0); border-collapse: collapse;&quot;&gt;&lt;tbody&gt;&lt;/tbody&gt;&lt;/table&gt;&lt;/div&gt;&lt;/div&gt;" style="verticalAlign=top;align=left;overflow=fill;html=1;rounded=0;shadow=0;comic=0;labelBackgroundColor=#33FF99;strokeWidth=1;fontFamily=Verdana;fontSize=12;labelBorderColor=#009900;whiteSpace=wrap;strokeColor=#00994D;fillColor=#33FF99;" parent="1" vertex="1">
          <mxGeometry x="2500" y="-380" width="230" height="250" as="geometry" />
        </mxCell>
        <mxCell id="5GJWT2BgU9dCmbnouzlv-5" value="&lt;div style=&quot;box-sizing: border-box; width: 100%; background-image: initial; background-position: initial; background-size: initial; background-repeat: initial; background-attachment: initial; background-origin: initial; background-clip: initial; padding: 2px;&quot;&gt;&lt;div style=&quot;&quot;&gt;&lt;div style=&quot;text-align: center;&quot;&gt;&lt;b style=&quot;color: light-dark(rgb(0, 0, 0), rgb(255, 255, 255));&quot;&gt;&lt;font face=&quot;Verdana&quot; style=&quot;font-size: 14px;&quot;&gt;&lt;u&gt;Статусы доставки&lt;/u&gt;&lt;/font&gt;&lt;/b&gt;&lt;/div&gt;&lt;b&gt;&lt;font style=&quot;font-size: 9px;&quot; face=&quot;Helvetica&quot;&gt;&lt;br&gt;&lt;/font&gt;&lt;/b&gt;&lt;table style=&quot;font-weight: 700; border: 1px solid rgb(0, 0, 0); border-collapse: collapse;&quot; border=&quot;1&quot;&gt;&lt;tbody&gt;&lt;tr&gt;&lt;td&gt;&lt;font face=&quot;Helvetica&quot;&gt;status_id&lt;/font&gt;&lt;/td&gt;&lt;td&gt;&lt;span style=&quot;font-weight: 400;&quot;&gt;&lt;font face=&quot;Helvetica&quot;&gt;UUID&lt;/font&gt;&lt;/span&gt;&lt;/td&gt;&lt;/tr&gt;&lt;tr&gt;&lt;td&gt;&lt;font face=&quot;Helvetica&quot;&gt;status_text&lt;/font&gt;&lt;/td&gt;&lt;td&gt;&lt;span style=&quot;font-weight: normal;&quot;&gt;&lt;font face=&quot;Helvetica&quot;&gt;VARCHAR(100)&lt;/font&gt;&lt;/span&gt;&lt;/td&gt;&lt;/tr&gt;&lt;/tbody&gt;&lt;/table&gt;&lt;font style=&quot;font-size: 9px;&quot; face=&quot;Helvetica&quot;&gt;&lt;b&gt;&lt;br&gt;&lt;/b&gt;&lt;/font&gt;&lt;table style=&quot;color: light-dark(rgb(0, 0, 0), rgb(255, 255, 255)); width: 100%; border: 1px solid rgb(0, 0, 0); border-collapse: collapse;&quot; border=&quot;1&quot; cellpadding=&quot;2&quot; cellspacing=&quot;0&quot;&gt;&lt;tbody&gt;&lt;/tbody&gt;&lt;/table&gt;&lt;/div&gt;&lt;/div&gt;" style="verticalAlign=top;align=left;overflow=fill;html=1;rounded=0;shadow=0;comic=0;labelBackgroundColor=none;strokeWidth=1;fontFamily=Verdana;fontSize=12;labelBorderColor=#FF9933;whiteSpace=wrap;strokeColor=#994C00;fillColor=#FFB366;" parent="1" vertex="1">
          <mxGeometry x="1130" y="-2040" width="280" height="120" as="geometry" />
        </mxCell>
        <mxCell id="5GJWT2BgU9dCmbnouzlv-10" value="&lt;div style=&quot;box-sizing: border-box; width: 100%; background-image: initial; background-position: initial; background-size: initial; background-repeat: initial; background-attachment: initial; background-origin: initial; background-clip: initial; padding: 2px;&quot;&gt;&lt;div style=&quot;text-align: center;&quot;&gt;&lt;br&gt;&lt;br&gt;&lt;/div&gt;&lt;/div&gt;" style="verticalAlign=top;align=left;overflow=fill;html=1;rounded=0;shadow=0;comic=0;labelBackgroundColor=none;strokeWidth=1;fontFamily=Verdana;fontSize=12;labelBorderColor=none;whiteSpace=wrap;fillColor=#33FF99;strokeColor=#00994D;" parent="1" vertex="1">
          <mxGeometry x="1360" y="-1260" width="440" height="313.5" as="geometry" />
        </mxCell>
        <mxCell id="5GJWT2BgU9dCmbnouzlv-63" value="&lt;font style=&quot;color: rgb(0, 0, 0);&quot;&gt;&lt;b style=&quot;font-family: Verdana;&quot;&gt;&lt;font style=&quot;font-size: 14px;&quot;&gt;&lt;u&gt;Список доступных заказов&lt;br&gt;&lt;br&gt;&lt;/u&gt;&lt;/font&gt;&lt;/b&gt;&lt;div style=&quot;&quot;&gt;&lt;table border=&quot;1&quot; style=&quot;text-align: left; font-family: Verdana; font-weight: 700; border: 1px solid rgb(0, 0, 0); border-collapse: collapse;&quot;&gt;&lt;tbody&gt;&lt;tr&gt;&lt;td&gt;&lt;font face=&quot;Helvetica&quot;&gt;available_order_id&lt;/font&gt;&lt;/td&gt;&lt;td&gt;&lt;span style=&quot;font-weight: 400;&quot;&gt;&lt;font face=&quot;Helvetica&quot;&gt;UUID&lt;/font&gt;&lt;/span&gt;&lt;/td&gt;&lt;/tr&gt;&lt;tr&gt;&lt;td&gt;&lt;font face=&quot;Helvetica&quot;&gt;transfer_date&lt;/font&gt;&lt;/td&gt;&lt;td&gt;&lt;span style=&quot;font-weight: 400;&quot;&gt;&lt;font face=&quot;Helvetica&quot;&gt;DATE&lt;/font&gt;&lt;/span&gt;&lt;/td&gt;&lt;/tr&gt;&lt;tr&gt;&lt;td&gt;&lt;font face=&quot;Helvetica&quot;&gt;transfer_time&lt;/font&gt;&lt;/td&gt;&lt;td&gt;&lt;span style=&quot;font-weight: 400;&quot;&gt;&lt;font face=&quot;Helvetica&quot;&gt;TIME&lt;/font&gt;&lt;/span&gt;&lt;/td&gt;&lt;/tr&gt;&lt;tr&gt;&lt;td&gt;&lt;font face=&quot;Helvetica&quot;&gt;courier_id&lt;/font&gt;&lt;/td&gt;&lt;td&gt;&lt;span style=&quot;font-weight: 400;&quot;&gt;&lt;font face=&quot;Helvetica&quot;&gt;UUID&lt;/font&gt;&lt;/span&gt;&lt;/td&gt;&lt;/tr&gt;&lt;tr&gt;&lt;td&gt;&lt;font face=&quot;Helvetica&quot;&gt;dispatcher_id&lt;/font&gt;&lt;/td&gt;&lt;td&gt;&lt;span style=&quot;font-weight: 400;&quot;&gt;&lt;font face=&quot;Helvetica&quot;&gt;UUID&lt;/font&gt;&lt;/span&gt;&lt;/td&gt;&lt;/tr&gt;&lt;/tbody&gt;&lt;/table&gt;&lt;/div&gt;&lt;/font&gt;&lt;table style=&quot;font-family: Verdana; font-size: 1em; text-align: left; width: 226px; border: 1px solid rgb(0, 0, 0); border-collapse: collapse;&quot; cellspacing=&quot;0&quot; cellpadding=&quot;2&quot; border=&quot;1&quot;&gt;&lt;tbody&gt;&lt;/tbody&gt;&lt;/table&gt;" style="rhombus;whiteSpace=wrap;html=1;fillColor=#66B2FF;strokeColor=#000099;labelBackgroundColor=none;" parent="1" vertex="1">
          <mxGeometry x="1395.38" y="-540" width="590" height="390" as="geometry" />
        </mxCell>
        <mxCell id="4h8rwMEjscWDVEq-1A-V-62" style="edgeStyle=orthogonalEdgeStyle;rounded=0;orthogonalLoop=1;jettySize=auto;html=1;exitX=0.5;exitY=1;exitDx=0;exitDy=0;" parent="1" source="5GJWT2BgU9dCmbnouzlv-3" target="5GJWT2BgU9dCmbnouzlv-3" edge="1">
          <mxGeometry relative="1" as="geometry" />
        </mxCell>
        <mxCell id="4h8rwMEjscWDVEq-1A-V-70" value="" style="endArrow=ERone;html=1;rounded=0;startArrow=ERoneToMany;startFill=0;endFill=0;strokeColor=#00994D;entryX=0.5;entryY=1;entryDx=0;entryDy=0;strokeWidth=3;edgeStyle=orthogonalEdgeStyle;" parent="1" source="dc56x3FVuly3grsE45ck-3" target="2ed32ef02a7f4228-2" edge="1">
          <mxGeometry relative="1" as="geometry">
            <mxPoint x="40" y="-1357.5" as="sourcePoint" />
            <mxPoint x="190" y="-1065" as="targetPoint" />
          </mxGeometry>
        </mxCell>
        <mxCell id="4h8rwMEjscWDVEq-1A-V-77" value="" style="endArrow=ERmany;html=1;rounded=0;startArrow=ERone;startFill=0;endFill=0;strokeColor=#00994D;exitX=0.5;exitY=0;exitDx=0;exitDy=0;entryX=1.002;entryY=0.547;entryDx=0;entryDy=0;edgeStyle=orthogonalEdgeStyle;strokeWidth=3;entryPerimeter=0;" parent="1" source="5GJWT2BgU9dCmbnouzlv-3" target="5GJWT2BgU9dCmbnouzlv-2" edge="1">
          <mxGeometry relative="1" as="geometry">
            <mxPoint x="2795" y="-981" as="sourcePoint" />
            <mxPoint x="2870" y="-918.5" as="targetPoint" />
          </mxGeometry>
        </mxCell>
        <mxCell id="4h8rwMEjscWDVEq-1A-V-78" value="" style="endArrow=ERmany;html=1;rounded=0;startArrow=ERone;startFill=0;endFill=0;strokeColor=#00994D;exitX=0.75;exitY=1;exitDx=0;exitDy=0;entryX=1;entryY=0.5;entryDx=0;entryDy=0;strokeWidth=3;edgeStyle=orthogonalEdgeStyle;" parent="1" source="5GJWT2BgU9dCmbnouzlv-3" target="5GJWT2BgU9dCmbnouzlv-4" edge="1">
          <mxGeometry relative="1" as="geometry">
            <mxPoint x="2795" y="-981" as="sourcePoint" />
            <mxPoint x="2146" y="-843.5" as="targetPoint" />
          </mxGeometry>
        </mxCell>
        <mxCell id="4h8rwMEjscWDVEq-1A-V-79" value="" style="endArrow=ERone;html=1;rounded=0;startArrow=ERmany;startFill=0;endFill=0;strokeColor=#00994D;exitX=0;exitY=0.5;exitDx=0;exitDy=0;entryX=1;entryY=0.5;entryDx=0;entryDy=0;edgeStyle=orthogonalEdgeStyle;strokeWidth=3;" parent="1" source="5GJWT2BgU9dCmbnouzlv-4" target="5GJWT2BgU9dCmbnouzlv-63" edge="1">
          <mxGeometry relative="1" as="geometry">
            <mxPoint x="2410.68" y="-333.15" as="sourcePoint" />
            <mxPoint x="2251.68" y="-343.65" as="targetPoint" />
          </mxGeometry>
        </mxCell>
        <mxCell id="4h8rwMEjscWDVEq-1A-V-80" value="" style="endArrow=ERmandOne;html=1;rounded=0;startArrow=ERmandOne;startFill=0;endFill=0;strokeColor=#0000CC;entryX=1;entryY=0.5;entryDx=0;entryDy=0;strokeWidth=3;exitX=0;exitY=0.5;exitDx=0;exitDy=0;" parent="1" source="5GJWT2BgU9dCmbnouzlv-65" target="dc56x3FVuly3grsE45ck-13" edge="1">
          <mxGeometry relative="1" as="geometry">
            <mxPoint x="1066.68" y="307.35" as="sourcePoint" />
            <mxPoint x="1056.68" y="-242.64999999999998" as="targetPoint" />
          </mxGeometry>
        </mxCell>
        <mxCell id="4h8rwMEjscWDVEq-1A-V-82" value="" style="endArrow=ERone;html=1;rounded=0;startArrow=ERmany;startFill=0;endFill=0;strokeColor=#00994D;exitX=0.5;exitY=1;exitDx=0;exitDy=0;edgeStyle=orthogonalEdgeStyle;strokeWidth=3;entryX=1;entryY=0.25;entryDx=0;entryDy=0;" parent="1" source="5GJWT2BgU9dCmbnouzlv-2" target="5GJWT2BgU9dCmbnouzlv-65" edge="1">
          <mxGeometry relative="1" as="geometry">
            <mxPoint x="2492" y="-508.5" as="sourcePoint" />
            <mxPoint x="2465.5" y="-641" as="targetPoint" />
          </mxGeometry>
        </mxCell>
        <mxCell id="4h8rwMEjscWDVEq-1A-V-104" value="" style="endArrow=ERone;html=1;rounded=0;startArrow=ERmany;startFill=0;endFill=0;strokeColor=#FFB366;entryX=0.5;entryY=1;entryDx=0;entryDy=0;strokeWidth=3;exitX=0.5;exitY=0;exitDx=0;exitDy=0;edgeStyle=orthogonalEdgeStyle;" parent="1" source="dc56x3FVuly3grsE45ck-17" target="5GJWT2BgU9dCmbnouzlv-5" edge="1">
          <mxGeometry width="50" height="50" relative="1" as="geometry">
            <mxPoint x="1610" y="-1610" as="sourcePoint" />
            <mxPoint x="1559.62" y="-1246.5" as="targetPoint" />
          </mxGeometry>
        </mxCell>
        <mxCell id="4h8rwMEjscWDVEq-1A-V-154" value="" style="endArrow=none;html=1;rounded=0;startArrow=none;startFill=0;endFill=0;strokeColor=#33FF99;dashed=1;exitX=0.5;exitY=0;exitDx=0;exitDy=0;strokeWidth=2;entryX=0.5;entryY=1;entryDx=0;entryDy=0;" parent="1" edge="1">
          <mxGeometry width="50" height="50" relative="1" as="geometry">
            <mxPoint x="540" y="-1225" as="sourcePoint" />
            <mxPoint x="540" y="-1258" as="targetPoint" />
          </mxGeometry>
        </mxCell>
        <mxCell id="4h8rwMEjscWDVEq-1A-V-162" value="" style="endArrow=ERmany;html=1;rounded=0;startArrow=ERone;startFill=0;endFill=0;strokeColor=#0000CC;exitX=0.5;exitY=0;exitDx=0;exitDy=0;strokeWidth=3;edgeStyle=orthogonalEdgeStyle;entryX=0;entryY=0.75;entryDx=0;entryDy=0;" parent="1" source="5GJWT2BgU9dCmbnouzlv-10" target="dc56x3FVuly3grsE45ck-17" edge="1">
          <mxGeometry width="50" height="50" relative="1" as="geometry">
            <mxPoint x="1860" y="-1395" as="sourcePoint" />
            <mxPoint x="1370" y="-1450" as="targetPoint" />
          </mxGeometry>
        </mxCell>
        <mxCell id="4h8rwMEjscWDVEq-1A-V-164" value="" style="endArrow=ERmany;html=1;rounded=0;startArrow=ERone;startFill=0;endFill=0;strokeColor=#00994D;exitX=0;exitY=0.5;exitDx=0;exitDy=0;entryX=1;entryY=0.5;entryDx=0;entryDy=0;strokeWidth=3;edgeStyle=orthogonalEdgeStyle;" parent="1" source="5GJWT2BgU9dCmbnouzlv-2" target="4h8rwMEjscWDVEq-1A-V-223" edge="1">
          <mxGeometry relative="1" as="geometry">
            <mxPoint x="2170.5" y="-1270" as="sourcePoint" />
            <mxPoint x="1950" y="-1270" as="targetPoint" />
          </mxGeometry>
        </mxCell>
        <mxCell id="4h8rwMEjscWDVEq-1A-V-187" value="" style="endArrow=ERmany;html=1;rounded=0;startArrow=ERone;startFill=0;endFill=0;strokeColor=#0000CC;exitX=0.5;exitY=0;exitDx=0;exitDy=0;strokeWidth=3;edgeStyle=orthogonalEdgeStyle;entryX=0.5;entryY=1;entryDx=0;entryDy=0;" parent="1" source="5GJWT2BgU9dCmbnouzlv-63" target="5GJWT2BgU9dCmbnouzlv-10" edge="1">
          <mxGeometry width="50" height="50" relative="1" as="geometry">
            <mxPoint x="1579.619999999999" y="-876.5" as="sourcePoint" />
            <mxPoint x="1580" y="-920" as="targetPoint" />
          </mxGeometry>
        </mxCell>
        <mxCell id="4h8rwMEjscWDVEq-1A-V-223" value="&lt;span style=&quot;text-wrap-mode: nowrap;&quot;&gt;&lt;b style=&quot;&quot;&gt;&lt;br&gt;&lt;br&gt;&lt;font face=&quot;Verdana&quot; style=&quot;font-size: 14px;&quot;&gt;&lt;u&gt;Доставка&lt;/u&gt;&lt;/font&gt;&lt;br&gt;&lt;br&gt;&lt;br&gt;&lt;br&gt;&lt;/b&gt;&lt;/span&gt;&lt;div&gt;&lt;table style=&quot;font-family: Verdana; font-weight: 700; border: 1px solid rgb(0, 0, 0); border-collapse: collapse;&quot; border=&quot;1&quot;&gt;&lt;tbody&gt;&lt;tr&gt;&lt;td&gt;&lt;font face=&quot;Helvetica&quot;&gt;delivery_id&lt;/font&gt;&lt;/td&gt;&lt;td&gt;&lt;span style=&quot;font-weight: 400;&quot;&gt;&lt;font face=&quot;Helvetica&quot;&gt;UUID&lt;/font&gt;&lt;/span&gt;&lt;/td&gt;&lt;/tr&gt;&lt;tr&gt;&lt;td&gt;&lt;font face=&quot;Helvetica&quot;&gt;end_date&lt;/font&gt;&lt;/td&gt;&lt;td&gt;&lt;span style=&quot;font-weight: 400;&quot;&gt;&lt;font face=&quot;Helvetica&quot;&gt;DATE&lt;/font&gt;&lt;/span&gt;&lt;/td&gt;&lt;/tr&gt;&lt;tr&gt;&lt;td&gt;&lt;font face=&quot;Helvetica&quot;&gt;end_time&lt;/font&gt;&lt;/td&gt;&lt;td&gt;&lt;span style=&quot;font-weight: 400;&quot;&gt;&lt;font face=&quot;Helvetica&quot;&gt;TIME&lt;/font&gt;&lt;/span&gt;&lt;/td&gt;&lt;/tr&gt;&lt;tr&gt;&lt;td&gt;&lt;font face=&quot;Helvetica&quot;&gt;start_point&lt;/font&gt;&lt;/td&gt;&lt;td&gt;&lt;span style=&quot;font-weight: 400;&quot;&gt;&lt;font face=&quot;Helvetica&quot;&gt;VARCHAR(100)&lt;/font&gt;&lt;/span&gt;&lt;/td&gt;&lt;/tr&gt;&lt;tr&gt;&lt;td&gt;&lt;font face=&quot;Helvetica&quot;&gt;end_point&lt;/font&gt;&lt;/td&gt;&lt;td&gt;&lt;span style=&quot;font-weight: 400;&quot;&gt;&lt;font face=&quot;Helvetica&quot;&gt;VARCHAR(100)&lt;/font&gt;&lt;/span&gt;&lt;/td&gt;&lt;/tr&gt;&lt;tr&gt;&lt;td&gt;&lt;font face=&quot;Helvetica&quot;&gt;distance_km&lt;/font&gt;&lt;/td&gt;&lt;td&gt;&lt;span style=&quot;font-weight: 400;&quot;&gt;&lt;font face=&quot;Helvetica&quot;&gt;DECIMAL(10,2)&lt;/font&gt;&lt;/span&gt;&lt;/td&gt;&lt;/tr&gt;&lt;tr&gt;&lt;td&gt;&lt;font face=&quot;Helvetica&quot;&gt;status_id&lt;/font&gt;&lt;/td&gt;&lt;td&gt;&lt;span style=&quot;font-weight: 400;&quot;&gt;&lt;font face=&quot;Helvetica&quot;&gt;UUID&lt;/font&gt;&lt;/span&gt;&lt;/td&gt;&lt;/tr&gt;&lt;tr&gt;&lt;td&gt;&lt;font face=&quot;Helvetica&quot;&gt;client_order_id&lt;/font&gt;&lt;/td&gt;&lt;td&gt;&lt;span style=&quot;font-weight: 400;&quot;&gt;&lt;font face=&quot;Helvetica&quot;&gt;UUID&lt;/font&gt;&lt;/span&gt;&lt;/td&gt;&lt;/tr&gt;&lt;/tbody&gt;&lt;/table&gt;&lt;/div&gt;" style="rhombus;whiteSpace=wrap;html=1;fillColor=#33FF99;strokeColor=#00994D;labelBackgroundColor=none;verticalAlign=top;fontColor=default;" parent="1" vertex="1">
          <mxGeometry x="1360.38" y="-1260" width="440" height="310" as="geometry" />
        </mxCell>
        <mxCell id="4h8rwMEjscWDVEq-1A-V-224" value="&lt;b style=&quot;color: light-dark(rgb(0, 0, 0), rgb(255, 255, 255)); text-wrap-mode: wrap; background-color: transparent;&quot;&gt;&lt;br&gt;Сущность&lt;/b&gt;" style="verticalAlign=middle;align=center;overflow=fill;html=1;rounded=0;shadow=0;comic=0;labelBackgroundColor=none;strokeWidth=1;fontFamily=Verdana;fontSize=19;labelBorderColor=#009900;whiteSpace=wrap;" parent="1" vertex="1">
          <mxGeometry x="2620" y="-2315" width="340" height="70" as="geometry" />
        </mxCell>
        <mxCell id="4h8rwMEjscWDVEq-1A-V-225" value="&lt;b&gt;Атрибут&lt;/b&gt;" style="ellipse;whiteSpace=wrap;html=1;fillColor=default;strokeColor=#d79b00;labelBackgroundColor=none;fontSize=19;" parent="1" vertex="1">
          <mxGeometry x="2620" y="-2205" width="340" height="96.5" as="geometry" />
        </mxCell>
        <mxCell id="4h8rwMEjscWDVEq-1A-V-226" value="Связь&lt;br&gt;(&lt;i&gt;действие&lt;/i&gt;)" style="rhombus;whiteSpace=wrap;html=1;fillColor=default;strokeColor=#82b366;fontStyle=1;fontSize=19;" parent="1" vertex="1">
          <mxGeometry x="2630" y="-2075" width="320" height="140" as="geometry" />
        </mxCell>
        <mxCell id="4h8rwMEjscWDVEq-1A-V-228" value="&lt;b&gt;&lt;br&gt;&lt;br&gt;&lt;br&gt;&lt;br&gt;&lt;font style=&quot;font-size: 14px;&quot; face=&quot;Verdana&quot;&gt;&lt;u&gt;Поставщик-Очередь&lt;/u&gt;&lt;/font&gt;&lt;br&gt;&lt;br&gt;&lt;/b&gt;&lt;table style=&quot;font-family: Verdana; font-weight: 700; border: 1px solid rgb(0, 0, 0); border-collapse: collapse;&quot; border=&quot;1&quot;&gt;&lt;tbody&gt;&lt;tr&gt;&lt;td&gt;&lt;font face=&quot;Helvetica&quot;&gt;supplier_queue_id&lt;/font&gt;&lt;/td&gt;&lt;td&gt;&lt;span style=&quot;font-weight: 400;&quot;&gt;&lt;font face=&quot;Helvetica&quot;&gt;UUID&lt;/font&gt;&lt;/span&gt;&lt;/td&gt;&lt;/tr&gt;&lt;tr&gt;&lt;td&gt;&lt;font face=&quot;Helvetica&quot;&gt;response_date&lt;/font&gt;&lt;/td&gt;&lt;td&gt;&lt;span style=&quot;font-weight: 400;&quot;&gt;&lt;font face=&quot;Helvetica&quot;&gt;DATE&lt;/font&gt;&lt;/span&gt;&lt;/td&gt;&lt;/tr&gt;&lt;tr&gt;&lt;td&gt;&lt;font face=&quot;Helvetica&quot;&gt;response_time&lt;/font&gt;&lt;/td&gt;&lt;td&gt;&lt;span style=&quot;font-weight: 400;&quot;&gt;&lt;font face=&quot;Helvetica&quot;&gt;TIME&lt;/font&gt;&lt;/span&gt;&lt;/td&gt;&lt;/tr&gt;&lt;tr&gt;&lt;td&gt;&lt;font face=&quot;Helvetica&quot;&gt;deadline_date&lt;/font&gt;&lt;/td&gt;&lt;td&gt;&lt;span style=&quot;font-weight: 400;&quot;&gt;&lt;font face=&quot;Helvetica&quot;&gt;DATE&lt;/font&gt;&lt;/span&gt;&lt;/td&gt;&lt;/tr&gt;&lt;tr&gt;&lt;td&gt;&lt;font face=&quot;Helvetica&quot;&gt;deadline_time&lt;/font&gt;&lt;/td&gt;&lt;td&gt;&lt;span style=&quot;font-weight: 400;&quot;&gt;&lt;font face=&quot;Helvetica&quot;&gt;TIME&lt;/font&gt;&lt;/span&gt;&lt;/td&gt;&lt;/tr&gt;&lt;tr&gt;&lt;td&gt;&lt;font face=&quot;Helvetica&quot;&gt;comment_text&lt;/font&gt;&lt;/td&gt;&lt;td&gt;&lt;span style=&quot;font-weight: 400;&quot;&gt;&lt;font face=&quot;Helvetica&quot;&gt;TEXT&lt;/font&gt;&lt;/span&gt;&lt;/td&gt;&lt;/tr&gt;&lt;tr&gt;&lt;td&gt;&lt;font face=&quot;Helvetica&quot;&gt;status_id&lt;/font&gt;&lt;/td&gt;&lt;td&gt;&lt;span style=&quot;font-weight: 400;&quot;&gt;&lt;font face=&quot;Helvetica&quot;&gt;UUID&lt;/font&gt;&lt;/span&gt;&lt;/td&gt;&lt;/tr&gt;&lt;tr&gt;&lt;td&gt;&lt;font face=&quot;Helvetica&quot;&gt;client_order_id&lt;/font&gt;&lt;/td&gt;&lt;td&gt;&lt;span style=&quot;font-weight: 400;&quot;&gt;&lt;font face=&quot;Helvetica&quot;&gt;UUID&lt;/font&gt;&lt;/span&gt;&lt;/td&gt;&lt;/tr&gt;&lt;/tbody&gt;&lt;/table&gt;" style="rhombus;whiteSpace=wrap;html=1;fillColor=#66B2FF;strokeColor=#000099;verticalAlign=top;align=center;labelBackgroundColor=none;" parent="1" vertex="1">
          <mxGeometry x="-168.14" y="-22.649999999999864" width="490" height="330" as="geometry" />
        </mxCell>
        <mxCell id="4h8rwMEjscWDVEq-1A-V-231" value="" style="endArrow=ERmany;html=1;rounded=0;startArrow=ERone;startFill=0;endFill=0;strokeColor=#0000CC;strokeWidth=3;entryX=0.5;entryY=0;entryDx=0;entryDy=0;exitX=0.5;exitY=1;exitDx=0;exitDy=0;edgeStyle=orthogonalEdgeStyle;" parent="1" source="dc56x3FVuly3grsE45ck-13" target="4h8rwMEjscWDVEq-1A-V-228" edge="1">
          <mxGeometry width="50" height="50" relative="1" as="geometry">
            <mxPoint x="1971.68" y="1501.73" as="sourcePoint" />
            <mxPoint x="2059.68" y="1501.73" as="targetPoint" />
          </mxGeometry>
        </mxCell>
        <mxCell id="dc56x3FVuly3grsE45ck-2" value="" style="rounded=0;whiteSpace=wrap;html=1;fillColor=#66B2FF;strokeColor=#000099;" parent="1" vertex="1">
          <mxGeometry x="-280" y="-1060" width="500" height="410" as="geometry" />
        </mxCell>
        <mxCell id="dc56x3FVuly3grsE45ck-3" value="&lt;b&gt;&lt;u&gt;&lt;br&gt;&lt;br&gt;&lt;br&gt;&lt;br&gt;&lt;font style=&quot;font-size: 15px;&quot; face=&quot;Verdana&quot;&gt;Клиент-Заказ&lt;/font&gt;&lt;/u&gt;&lt;/b&gt;&lt;b style=&quot;font-size: 14px;&quot;&gt;&lt;u&gt;&lt;span style=&quot;font-family: Verdana;&quot;&gt;&lt;span style=&quot;font-family: Helvetica; color: rgb(0, 0, 0);&quot;&gt;&lt;br&gt;&lt;/span&gt;&lt;/span&gt;&lt;/u&gt;&lt;/b&gt;&lt;br style=&quot;font-size: 14px;&quot;&gt;&lt;table style=&quot;text-align: left; font-family: Verdana; font-weight: 700; border: 1px solid rgb(0, 0, 0); border-collapse: collapse;&quot; border=&quot;1&quot;&gt;&lt;tbody&gt;&lt;tr&gt;&lt;td&gt;&lt;font face=&quot;Helvetica&quot;&gt;client_order_id&lt;/font&gt;&lt;/td&gt;&lt;td&gt;&lt;span style=&quot;font-weight: 400;&quot;&gt;&lt;font face=&quot;Helvetica&quot;&gt;UUID&lt;/font&gt;&lt;/span&gt;&lt;/td&gt;&lt;/tr&gt;&lt;tr&gt;&lt;td&gt;&lt;font face=&quot;Helvetica&quot;&gt;status_id&lt;/font&gt;&lt;/td&gt;&lt;td&gt;&lt;span style=&quot;font-weight: 400;&quot;&gt;&lt;font face=&quot;Helvetica&quot;&gt;UUID&lt;/font&gt;&lt;/span&gt;&lt;/td&gt;&lt;/tr&gt;&lt;tr&gt;&lt;td&gt;&lt;font face=&quot;Helvetica&quot;&gt;total_amount&lt;/font&gt;&lt;/td&gt;&lt;td&gt;&lt;span style=&quot;font-weight: 400;&quot;&gt;&lt;font face=&quot;Helvetica&quot;&gt;DECIMAL(10,2)&lt;/font&gt;&lt;/span&gt;&lt;/td&gt;&lt;/tr&gt;&lt;tr&gt;&lt;td&gt;&lt;font face=&quot;Helvetica&quot;&gt;currency&lt;/font&gt;&lt;/td&gt;&lt;td&gt;&lt;span style=&quot;font-weight: 400;&quot;&gt;&lt;font face=&quot;Helvetica&quot;&gt;VARCHAR(3)&lt;/font&gt;&lt;/span&gt;&lt;/td&gt;&lt;/tr&gt;&lt;tr&gt;&lt;td&gt;&lt;font face=&quot;Helvetica&quot;&gt;payment_method&lt;/font&gt;&lt;/td&gt;&lt;td&gt;&lt;span style=&quot;font-weight: 400;&quot;&gt;&lt;font face=&quot;Helvetica&quot;&gt;VARCHAR(50)&lt;/font&gt;&lt;/span&gt;&lt;/td&gt;&lt;/tr&gt;&lt;tr&gt;&lt;td&gt;&lt;font face=&quot;Helvetica&quot;&gt;total_weight_kg&lt;/font&gt;&lt;/td&gt;&lt;td&gt;&lt;span style=&quot;font-weight: 400;&quot;&gt;&lt;font face=&quot;Helvetica&quot;&gt;DECIMAL(10,2)&lt;/font&gt;&lt;/span&gt;&lt;/td&gt;&lt;/tr&gt;&lt;tr&gt;&lt;td&gt;&lt;font face=&quot;Helvetica&quot;&gt;dimensions&lt;/font&gt;&lt;/td&gt;&lt;td&gt;&lt;span style=&quot;font-weight: 400;&quot;&gt;&lt;font face=&quot;Helvetica&quot;&gt;JSON&lt;/font&gt;&lt;/span&gt;&lt;/td&gt;&lt;/tr&gt;&lt;tr&gt;&lt;td&gt;&lt;font face=&quot;Helvetica&quot;&gt;country&lt;/font&gt;&lt;/td&gt;&lt;td&gt;&lt;span style=&quot;font-weight: 400;&quot;&gt;&lt;font face=&quot;Helvetica&quot;&gt;VARCHAR(50)&lt;/font&gt;&lt;/span&gt;&lt;/td&gt;&lt;/tr&gt;&lt;tr&gt;&lt;td&gt;&lt;font face=&quot;Helvetica&quot;&gt;city&lt;/font&gt;&lt;/td&gt;&lt;td&gt;&lt;span style=&quot;font-weight: 400;&quot;&gt;&lt;font face=&quot;Helvetica&quot;&gt;VARCHAR(50)&lt;/font&gt;&lt;/span&gt;&lt;/td&gt;&lt;/tr&gt;&lt;tr&gt;&lt;td&gt;&lt;font face=&quot;Helvetica&quot;&gt;street&lt;/font&gt;&lt;/td&gt;&lt;td&gt;&lt;span style=&quot;font-weight: 400;&quot;&gt;&lt;font face=&quot;Helvetica&quot;&gt;VARCHAR(100)&lt;/font&gt;&lt;/span&gt;&lt;/td&gt;&lt;/tr&gt;&lt;tr&gt;&lt;td&gt;&lt;font face=&quot;Helvetica&quot;&gt;house&lt;/font&gt;&lt;/td&gt;&lt;td&gt;&lt;span style=&quot;font-weight: 400;&quot;&gt;&lt;font face=&quot;Helvetica&quot;&gt;VARCHAR(10)&lt;/font&gt;&lt;/span&gt;&lt;/td&gt;&lt;/tr&gt;&lt;tr&gt;&lt;td&gt;&lt;font face=&quot;Helvetica&quot;&gt;apartment&lt;/font&gt;&lt;/td&gt;&lt;td&gt;&lt;span style=&quot;font-weight: 400;&quot;&gt;&lt;font face=&quot;Helvetica&quot;&gt;VARCHAR(10)&lt;/font&gt;&lt;/span&gt;&lt;/td&gt;&lt;/tr&gt;&lt;tr&gt;&lt;td&gt;&lt;font face=&quot;Helvetica&quot;&gt;product_list&lt;/font&gt;&lt;/td&gt;&lt;td&gt;&lt;span style=&quot;font-weight: 400;&quot;&gt;&lt;font face=&quot;Helvetica&quot;&gt;JSON&lt;/font&gt;&lt;/span&gt;&lt;/td&gt;&lt;/tr&gt;&lt;/tbody&gt;&lt;/table&gt;" style="rhombus;whiteSpace=wrap;html=1;fillColor=#66B2FF;strokeColor=#000099;verticalAlign=top;" parent="1" vertex="1">
          <mxGeometry x="-280" y="-1060" width="500" height="410" as="geometry" />
        </mxCell>
        <mxCell id="dc56x3FVuly3grsE45ck-4" value="&lt;div style=&quot;box-sizing: border-box; width: 100%; background-image: initial; background-position: initial; background-size: initial; background-repeat: initial; background-attachment: initial; background-origin: initial; background-clip: initial; padding: 2px 20px 2px 2px;&quot;&gt;&lt;div style=&quot;&quot;&gt;&lt;br&gt;&lt;br&gt;&lt;/div&gt;&lt;/div&gt;" style="verticalAlign=top;align=center;overflow=fill;html=1;rounded=0;shadow=0;comic=0;labelBackgroundColor=none;strokeWidth=1;fontFamily=Verdana;fontSize=12;labelBorderColor=#009900;whiteSpace=wrap;fillColor=#33FF99;spacing=0;imageAlign=center;strokeColor=#00994D;" parent="1" vertex="1">
          <mxGeometry x="-420" y="-440" width="250" height="140" as="geometry" />
        </mxCell>
        <mxCell id="dc56x3FVuly3grsE45ck-5" value="" style="endArrow=ERmandOne;html=1;rounded=0;startArrow=ERmandOne;startFill=0;endFill=0;strokeColor=#0000CC;entryX=0.5;entryY=1;entryDx=0;entryDy=0;strokeWidth=3;edgeStyle=orthogonalEdgeStyle;exitX=0.5;exitY=0;exitDx=0;exitDy=0;" parent="1" source="dc56x3FVuly3grsE45ck-4" target="dc56x3FVuly3grsE45ck-3" edge="1">
          <mxGeometry relative="1" as="geometry">
            <mxPoint x="180" y="-1060" as="sourcePoint" />
            <mxPoint x="50" y="-1470" as="targetPoint" />
          </mxGeometry>
        </mxCell>
        <mxCell id="dc56x3FVuly3grsE45ck-6" value="&lt;div style=&quot;text-align: center; box-sizing: border-box; width: 100%; background-image: initial; background-position: initial; background-size: initial; background-repeat: initial; background-attachment: initial; background-origin: initial; background-clip: initial; padding: 2px;&quot;&gt;&lt;b&gt;&lt;font style=&quot;font-size: 14px;&quot; face=&quot;Verdana&quot;&gt;&lt;u style=&quot;&quot;&gt;Товары&lt;br&gt;&lt;br&gt;&lt;/u&gt;&lt;/font&gt;&lt;/b&gt;&lt;table style=&quot;text-align: left; font-weight: 700; border: 1px solid rgb(0, 0, 0); border-collapse: collapse;&quot; border=&quot;1&quot;&gt;&lt;tbody&gt;&lt;tr&gt;&lt;td&gt;&lt;font face=&quot;Helvetica&quot;&gt;product_id&lt;/font&gt;&lt;/td&gt;&lt;td&gt;&lt;span style=&quot;font-weight: 400;&quot;&gt;&lt;font face=&quot;Helvetica&quot;&gt;UUID&lt;/font&gt;&lt;/span&gt;&lt;/td&gt;&lt;/tr&gt;&lt;tr&gt;&lt;td&gt;&lt;font face=&quot;Helvetica&quot;&gt;full_description&lt;/font&gt;&lt;/td&gt;&lt;td&gt;&lt;span style=&quot;font-weight: 400;&quot;&gt;&lt;font face=&quot;Helvetica&quot;&gt;TEXT&lt;/font&gt;&lt;/span&gt;&lt;/td&gt;&lt;/tr&gt;&lt;tr&gt;&lt;td&gt;&lt;font face=&quot;Helvetica&quot;&gt;specifications&lt;/font&gt;&lt;/td&gt;&lt;td&gt;&lt;span style=&quot;font-weight: 400;&quot;&gt;&lt;font face=&quot;Helvetica&quot;&gt;JSON&lt;/font&gt;&lt;/span&gt;&lt;/td&gt;&lt;/tr&gt;&lt;/tbody&gt;&lt;/table&gt;&lt;br&gt;&lt;br&gt;&lt;font style=&quot;text-align: left; font-size: 9px;&quot; face=&quot;Helvetica&quot;&gt;&lt;/font&gt;&lt;/div&gt;" style="verticalAlign=top;align=left;overflow=fill;html=1;rounded=0;shadow=0;comic=0;labelBackgroundColor=#FFB366;strokeWidth=1;fontFamily=Verdana;fontSize=12;labelBorderColor=#FF9933;whiteSpace=wrap;strokeColor=#994C00;fillColor=#FFB366;" parent="1" vertex="1">
          <mxGeometry x="-930.19" y="-1420" width="270" height="110" as="geometry" />
        </mxCell>
        <mxCell id="dc56x3FVuly3grsE45ck-7" value="&lt;div style=&quot;box-sizing: border-box; width: 100%; background-image: initial; background-position: initial; background-size: initial; background-repeat: initial; background-attachment: initial; background-origin: initial; background-clip: initial; padding: 2px;&quot;&gt;&lt;div style=&quot;text-align: center;&quot;&gt;&lt;span style=&quot;color: light-dark(rgb(0, 0, 0), rgb(255, 255, 255));&quot;&gt;&lt;b&gt;&lt;u&gt;&lt;font style=&quot;font-size: 14px;&quot;&gt;Поставщик&lt;/font&gt;&lt;br&gt;&lt;/u&gt;&lt;br&gt;&lt;/b&gt;&lt;/span&gt;&lt;/div&gt;&lt;table style=&quot;font-weight: 700; border: 1px solid rgb(0, 0, 0); border-collapse: collapse;&quot; border=&quot;1&quot;&gt;&lt;tbody&gt;&lt;tr&gt;&lt;td&gt;&lt;font face=&quot;Helvetica&quot;&gt;supplier_id&lt;/font&gt;&lt;/td&gt;&lt;td&gt;&lt;font style=&quot;font-weight: normal;&quot; face=&quot;Helvetica&quot;&gt;UUID&lt;/font&gt;&lt;/td&gt;&lt;/tr&gt;&lt;tr&gt;&lt;td&gt;&lt;font face=&quot;Helvetica&quot;&gt;registration_date&lt;/font&gt;&lt;/td&gt;&lt;td&gt;&lt;font style=&quot;font-weight: normal;&quot; face=&quot;Helvetica&quot;&gt;DATE&lt;/font&gt;&lt;/td&gt;&lt;/tr&gt;&lt;tr&gt;&lt;td&gt;&lt;font face=&quot;Helvetica&quot;&gt;country&lt;/font&gt;&lt;/td&gt;&lt;td&gt;&lt;font style=&quot;font-weight: normal;&quot; face=&quot;Helvetica&quot;&gt;VARCHAR(50)&lt;/font&gt;&lt;/td&gt;&lt;/tr&gt;&lt;tr&gt;&lt;td&gt;&lt;font face=&quot;Helvetica&quot;&gt;city&lt;/font&gt;&lt;/td&gt;&lt;td&gt;&lt;font style=&quot;font-weight: normal;&quot; face=&quot;Helvetica&quot;&gt;VARCHAR(50)&lt;/font&gt;&lt;/td&gt;&lt;/tr&gt;&lt;tr&gt;&lt;td&gt;&lt;font face=&quot;Helvetica&quot;&gt;house&lt;/font&gt;&lt;/td&gt;&lt;td&gt;&lt;font style=&quot;font-weight: normal;&quot; face=&quot;Helvetica&quot;&gt;VARCHAR(10)&lt;/font&gt;&lt;/td&gt;&lt;/tr&gt;&lt;tr&gt;&lt;td&gt;&lt;font face=&quot;Helvetica&quot;&gt;street&lt;/font&gt;&lt;/td&gt;&lt;td&gt;&lt;font style=&quot;font-weight: normal;&quot; face=&quot;Helvetica&quot;&gt;VARCHAR(20)&lt;/font&gt;&lt;/td&gt;&lt;/tr&gt;&lt;tr&gt;&lt;td&gt;&lt;font face=&quot;Helvetica&quot;&gt;inn&lt;/font&gt;&lt;/td&gt;&lt;td&gt;&lt;font style=&quot;font-weight: normal;&quot; face=&quot;Helvetica&quot;&gt;VARCHAR(12)&lt;/font&gt;&lt;/td&gt;&lt;/tr&gt;&lt;tr&gt;&lt;td&gt;&lt;font face=&quot;Helvetica&quot;&gt;kpp&lt;/font&gt;&lt;/td&gt;&lt;td&gt;&lt;font style=&quot;font-weight: normal;&quot; face=&quot;Helvetica&quot;&gt;VARCHAR(9)&lt;/font&gt;&lt;/td&gt;&lt;/tr&gt;&lt;tr&gt;&lt;td&gt;&lt;font face=&quot;Helvetica&quot;&gt;ogrn&lt;/font&gt;&lt;/td&gt;&lt;td&gt;&lt;font style=&quot;font-weight: normal;&quot; face=&quot;Helvetica&quot;&gt;VARCHAR(15)&lt;/font&gt;&lt;/td&gt;&lt;/tr&gt;&lt;tr&gt;&lt;td&gt;&lt;font face=&quot;Helvetica&quot;&gt;bank_account&lt;/font&gt;&lt;/td&gt;&lt;td&gt;&lt;font style=&quot;font-weight: normal;&quot; face=&quot;Helvetica&quot;&gt;VARCHAR(20)&lt;/font&gt;&lt;/td&gt;&lt;/tr&gt;&lt;tr&gt;&lt;td&gt;&lt;font face=&quot;Helvetica&quot;&gt;login&lt;/font&gt;&lt;/td&gt;&lt;td&gt;&lt;font style=&quot;font-weight: normal;&quot; face=&quot;Helvetica&quot;&gt;VARCHAR(50)&lt;/font&gt;&lt;/td&gt;&lt;/tr&gt;&lt;tr&gt;&lt;td&gt;&lt;font face=&quot;Helvetica&quot;&gt;password_hash&lt;/font&gt;&lt;/td&gt;&lt;td&gt;&lt;font style=&quot;font-weight: normal;&quot; face=&quot;Helvetica&quot;&gt;VARCHAR(64)&lt;/font&gt;&lt;/td&gt;&lt;/tr&gt;&lt;tr&gt;&lt;td&gt;&lt;font face=&quot;Helvetica&quot;&gt;company_name&lt;/font&gt;&lt;/td&gt;&lt;td&gt;&lt;font style=&quot;font-weight: normal;&quot; face=&quot;Helvetica&quot;&gt;VARCHAR(100)&lt;/font&gt;&lt;/td&gt;&lt;/tr&gt;&lt;tr&gt;&lt;td&gt;&lt;font face=&quot;Helvetica&quot;&gt;logo_url&lt;/font&gt;&lt;/td&gt;&lt;td&gt;&lt;font style=&quot;font-weight: normal;&quot; face=&quot;Helvetica&quot;&gt;VARCHAR(200)&lt;/font&gt;&lt;/td&gt;&lt;/tr&gt;&lt;tr&gt;&lt;td&gt;&lt;font face=&quot;Helvetica&quot;&gt;phone&lt;/font&gt;&lt;/td&gt;&lt;td&gt;&lt;font style=&quot;font-weight: normal;&quot; face=&quot;Helvetica&quot;&gt;VARCHAR(20)&lt;/font&gt;&lt;/td&gt;&lt;/tr&gt;&lt;tr&gt;&lt;td&gt;&lt;font face=&quot;Helvetica&quot;&gt;email&lt;/font&gt;&lt;/td&gt;&lt;td&gt;&lt;font style=&quot;font-weight: normal;&quot; face=&quot;Helvetica&quot;&gt;VARCHAR(100)&lt;/font&gt;&lt;/td&gt;&lt;/tr&gt;&lt;/tbody&gt;&lt;/table&gt;&lt;/div&gt;" style="verticalAlign=top;align=left;overflow=fill;html=1;rounded=0;shadow=0;comic=0;labelBackgroundColor=#33FF99;strokeWidth=1;fontFamily=Verdana;fontSize=12;labelBorderColor=#009900;whiteSpace=wrap;strokeColor=#00994D;fillColor=#33FF99;" parent="1" vertex="1">
          <mxGeometry x="-965" y="40" width="325" height="340" as="geometry" />
        </mxCell>
        <mxCell id="dc56x3FVuly3grsE45ck-8" value="&lt;div style=&quot;box-sizing: border-box; width: 100%; background-image: initial; background-position: initial; background-size: initial; background-repeat: initial; background-attachment: initial; background-origin: initial; background-clip: initial; padding: 2px;&quot;&gt;&lt;div style=&quot;text-align: center;&quot;&gt;&lt;br&gt;&lt;/div&gt;&lt;/div&gt;" style="verticalAlign=top;align=left;overflow=fill;html=1;rounded=0;shadow=0;comic=0;labelBackgroundColor=none;strokeWidth=1;fontFamily=Verdana;fontSize=12;labelBorderColor=#009900;whiteSpace=wrap;fillColor=#66B2FF;strokeColor=#000099;" parent="1" vertex="1">
          <mxGeometry x="-1010.19" y="-1020" width="429.63" height="330" as="geometry" />
        </mxCell>
        <mxCell id="dc56x3FVuly3grsE45ck-9" value="&lt;b style=&quot;&quot;&gt;&lt;br&gt;&lt;br&gt;&lt;br&gt;&lt;br&gt;&lt;br&gt;&lt;font face=&quot;Verdana&quot; style=&quot;font-size: 14px;&quot;&gt;&lt;u&gt;Поставщик-Товар&lt;br&gt;&lt;/u&gt;&lt;/font&gt;&lt;/b&gt;&lt;div&gt;&lt;b style=&quot;font-family: Verdana;&quot;&gt;&lt;br&gt;&lt;/b&gt;&lt;table style=&quot;text-align: left; font-family: Verdana; font-weight: 700; border: 1px solid rgb(0, 0, 0); border-collapse: collapse;&quot; border=&quot;1&quot;&gt;&lt;tbody&gt;&lt;tr&gt;&lt;td&gt;&lt;font face=&quot;Helvetica&quot;&gt;supplier_product_id&lt;/font&gt;&lt;/td&gt;&lt;td&gt;&lt;span style=&quot;font-weight: 400;&quot;&gt;&lt;font face=&quot;Helvetica&quot;&gt;UUID&lt;/font&gt;&lt;/span&gt;&lt;/td&gt;&lt;/tr&gt;&lt;tr&gt;&lt;td&gt;&lt;font face=&quot;Helvetica&quot;&gt;price&lt;/font&gt;&lt;/td&gt;&lt;td&gt;&lt;span style=&quot;font-weight: 400;&quot;&gt;&lt;font face=&quot;Helvetica&quot;&gt;DECIMAL(10,2)&lt;/font&gt;&lt;/span&gt;&lt;/td&gt;&lt;/tr&gt;&lt;tr&gt;&lt;td&gt;&lt;font face=&quot;Helvetica&quot;&gt;currency&lt;/font&gt;&lt;/td&gt;&lt;td&gt;&lt;span style=&quot;font-weight: 400;&quot;&gt;&lt;font face=&quot;Helvetica&quot;&gt;VARCHAR(3)&lt;/font&gt;&lt;/span&gt;&lt;/td&gt;&lt;/tr&gt;&lt;tr&gt;&lt;td&gt;&lt;font face=&quot;Helvetica&quot;&gt;weight_kg&lt;/font&gt;&lt;/td&gt;&lt;td&gt;&lt;span style=&quot;font-weight: 400;&quot;&gt;&lt;font face=&quot;Helvetica&quot;&gt;DECIMAL(10,2)&lt;/font&gt;&lt;/span&gt;&lt;/td&gt;&lt;/tr&gt;&lt;tr&gt;&lt;td&gt;&lt;font face=&quot;Helvetica&quot;&gt;length_cm&lt;/font&gt;&lt;/td&gt;&lt;td&gt;&lt;span style=&quot;font-weight: 400;&quot;&gt;&lt;font face=&quot;Helvetica&quot;&gt;DECIMAL(10,2)&lt;/font&gt;&lt;/span&gt;&lt;/td&gt;&lt;/tr&gt;&lt;tr&gt;&lt;td&gt;&lt;font face=&quot;Helvetica&quot;&gt;width_cm&lt;/font&gt;&lt;/td&gt;&lt;td&gt;&lt;span style=&quot;font-weight: 400;&quot;&gt;&lt;font face=&quot;Helvetica&quot;&gt;DECIMAL(10,2)&lt;/font&gt;&lt;/span&gt;&lt;/td&gt;&lt;/tr&gt;&lt;tr&gt;&lt;td&gt;&lt;font face=&quot;Helvetica&quot;&gt;height_cm&lt;/font&gt;&lt;/td&gt;&lt;td&gt;&lt;span style=&quot;font-weight: 400;&quot;&gt;&lt;font face=&quot;Helvetica&quot;&gt;DECIMAL(10,2)&lt;/font&gt;&lt;/span&gt;&lt;/td&gt;&lt;/tr&gt;&lt;/tbody&gt;&lt;/table&gt;&lt;/div&gt;" style="rhombus;whiteSpace=wrap;html=1;fillColor=#66B2FF;strokeColor=#000099;labelBackgroundColor=none;verticalAlign=top;" parent="1" vertex="1">
          <mxGeometry x="-1010.19" y="-1020" width="430" height="330" as="geometry" />
        </mxCell>
        <mxCell id="dc56x3FVuly3grsE45ck-10" value="" style="endArrow=ERmany;html=1;rounded=0;startArrow=ERone;startFill=0;endFill=0;strokeColor=#0000CC;strokeWidth=3;entryX=0;entryY=0.5;entryDx=0;entryDy=0;exitX=1;exitY=0.5;exitDx=0;exitDy=0;" parent="1" source="dc56x3FVuly3grsE45ck-8" target="dc56x3FVuly3grsE45ck-3" edge="1">
          <mxGeometry width="50" height="50" relative="1" as="geometry">
            <mxPoint x="-570" y="-920" as="sourcePoint" />
            <mxPoint x="-240" y="-922" as="targetPoint" />
          </mxGeometry>
        </mxCell>
        <mxCell id="dc56x3FVuly3grsE45ck-11" value="" style="endArrow=ERmany;html=1;rounded=0;startArrow=ERone;startFill=0;endFill=0;strokeColor=#0000CC;exitX=0.5;exitY=1;exitDx=0;exitDy=0;strokeWidth=3;entryX=0.5;entryY=0;entryDx=0;entryDy=0;" parent="1" source="dc56x3FVuly3grsE45ck-6" target="dc56x3FVuly3grsE45ck-8" edge="1">
          <mxGeometry width="50" height="50" relative="1" as="geometry">
            <mxPoint x="-600" y="-1276.18" as="sourcePoint" />
            <mxPoint x="-257" y="-1278.18" as="targetPoint" />
          </mxGeometry>
        </mxCell>
        <mxCell id="dc56x3FVuly3grsE45ck-12" value="" style="endArrow=ERone;html=1;rounded=0;startArrow=ERmany;startFill=0;endFill=0;strokeColor=#00994D;exitX=0.5;exitY=1;exitDx=0;exitDy=0;strokeWidth=3;entryX=0.5;entryY=0;entryDx=0;entryDy=0;" parent="1" source="dc56x3FVuly3grsE45ck-9" target="dc56x3FVuly3grsE45ck-7" edge="1">
          <mxGeometry width="50" height="50" relative="1" as="geometry">
            <mxPoint x="-798.12" y="-750" as="sourcePoint" />
            <mxPoint x="-798.12" y="-490" as="targetPoint" />
          </mxGeometry>
        </mxCell>
        <mxCell id="dc56x3FVuly3grsE45ck-13" value="" style="rounded=0;whiteSpace=wrap;html=1;fillColor=#66B2FF;labelBorderColor=none;labelBackgroundColor=none;fontColor=default;verticalAlign=top;strokeColor=#000099;" parent="1" vertex="1">
          <mxGeometry x="470" y="-420" width="360" height="144.69" as="geometry" />
        </mxCell>
        <mxCell id="dc56x3FVuly3grsE45ck-15" value="" style="endArrow=ERmany;html=1;rounded=0;startArrow=ERone;startFill=0;endFill=0;strokeColor=#0000CC;entryX=1;entryY=0.5;entryDx=0;entryDy=0;strokeWidth=3;edgeStyle=orthogonalEdgeStyle;exitX=0;exitY=0.5;exitDx=0;exitDy=0;" parent="1" source="dc56x3FVuly3grsE45ck-13" target="dc56x3FVuly3grsE45ck-4" edge="1">
          <mxGeometry relative="1" as="geometry">
            <mxPoint x="347.18" y="-3.2199999999999704" as="sourcePoint" />
            <mxPoint x="327.18" y="-193.21999999999997" as="targetPoint" />
          </mxGeometry>
        </mxCell>
        <mxCell id="dc56x3FVuly3grsE45ck-16" value="" style="endArrow=ERone;html=1;rounded=0;startArrow=ERmany;startFill=0;endFill=0;strokeColor=#00994D;strokeWidth=3;entryX=1;entryY=0.5;entryDx=0;entryDy=0;exitX=0;exitY=0.5;exitDx=0;exitDy=0;edgeStyle=orthogonalEdgeStyle;" parent="1" source="4h8rwMEjscWDVEq-1A-V-228" target="dc56x3FVuly3grsE45ck-7" edge="1">
          <mxGeometry width="50" height="50" relative="1" as="geometry">
            <mxPoint x="25.489999999999952" y="392.35" as="sourcePoint" />
            <mxPoint x="-533.51" y="562.35" as="targetPoint" />
          </mxGeometry>
        </mxCell>
        <mxCell id="dc56x3FVuly3grsE45ck-17" value="&lt;div style=&quot;box-sizing: border-box; width: 100%; background-image: initial; background-position: initial; background-size: initial; background-repeat: initial; background-attachment: initial; background-origin: initial; background-clip: initial; padding: 2px;&quot;&gt;&lt;div style=&quot;text-align: center;&quot;&gt;&lt;br&gt;&lt;/div&gt;&lt;/div&gt;" style="verticalAlign=top;align=left;overflow=fill;html=1;rounded=0;shadow=0;comic=0;labelBackgroundColor=none;strokeWidth=1;fontFamily=Verdana;fontSize=12;labelBorderColor=#0000FF;whiteSpace=wrap;fillColor=#1BAF78;strokeColor=#006600;" parent="1" vertex="1">
          <mxGeometry x="1750" y="-1720" width="440" height="230" as="geometry" />
        </mxCell>
        <mxCell id="dc56x3FVuly3grsE45ck-20" value="&lt;span style=&quot;text-wrap-mode: nowrap;&quot;&gt;&lt;b&gt;&lt;br&gt;&lt;br&gt;&lt;/b&gt;&lt;/span&gt;&lt;br style=&quot;font-family: Verdana;&quot;&gt;&lt;b style=&quot;font-family: Verdana;&quot;&gt;&lt;u&gt;История статусов доставки&lt;/u&gt;&lt;/b&gt;&lt;span style=&quot;text-wrap-mode: nowrap;&quot;&gt;&lt;b&gt;&lt;br&gt;&lt;br&gt;&lt;/b&gt;&lt;/span&gt;&lt;div&gt;&lt;table style=&quot;font-family: Verdana; font-weight: 700; border: 1px solid rgb(0, 0, 0); border-collapse: collapse;&quot; border=&quot;1&quot;&gt;&lt;tbody&gt;&lt;tr&gt;&lt;td&gt;&lt;font face=&quot;Helvetica&quot;&gt;history_id&lt;/font&gt;&lt;/td&gt;&lt;td&gt;&lt;span style=&quot;font-weight: 400;&quot;&gt;&lt;font face=&quot;Helvetica&quot;&gt;UUID&lt;/font&gt;&lt;/span&gt;&lt;/td&gt;&lt;/tr&gt;&lt;tr&gt;&lt;td&gt;&lt;font face=&quot;Helvetica&quot;&gt;initiator_id&lt;/font&gt;&lt;/td&gt;&lt;td&gt;&lt;span style=&quot;font-weight: 400;&quot;&gt;&lt;font face=&quot;Helvetica&quot;&gt;UUID&lt;/font&gt;&lt;/span&gt;&lt;/td&gt;&lt;/tr&gt;&lt;tr&gt;&lt;td&gt;&lt;font face=&quot;Helvetica&quot;&gt;change_date&lt;/font&gt;&lt;/td&gt;&lt;td&gt;&lt;span style=&quot;font-weight: 400;&quot;&gt;&lt;font face=&quot;Helvetica&quot;&gt;UUID&lt;/font&gt;&lt;/span&gt;&lt;/td&gt;&lt;/tr&gt;&lt;tr&gt;&lt;td&gt;&lt;font face=&quot;Helvetica&quot;&gt;change_time&lt;/font&gt;&lt;/td&gt;&lt;td&gt;&lt;span style=&quot;font-weight: 400;&quot;&gt;&lt;font face=&quot;Helvetica&quot;&gt;UUID&lt;/font&gt;&lt;/span&gt;&lt;/td&gt;&lt;/tr&gt;&lt;tr&gt;&lt;td&gt;&lt;font face=&quot;Helvetica&quot;&gt;old_status_id&lt;/font&gt;&lt;/td&gt;&lt;td&gt;&lt;span style=&quot;font-weight: 400;&quot;&gt;&lt;font face=&quot;Helvetica&quot;&gt;UUID&lt;/font&gt;&lt;/span&gt;&lt;/td&gt;&lt;/tr&gt;&lt;tr&gt;&lt;td&gt;&lt;font face=&quot;Helvetica&quot;&gt;new_status_id&lt;/font&gt;&lt;/td&gt;&lt;td&gt;&lt;span style=&quot;font-weight: normal;&quot;&gt;&lt;font face=&quot;Helvetica&quot;&gt;UUID&lt;/font&gt;&lt;/span&gt;&lt;/td&gt;&lt;/tr&gt;&lt;/tbody&gt;&lt;/table&gt;&lt;/div&gt;" style="ellipse;whiteSpace=wrap;html=1;fillColor=none;verticalAlign=top;strokeColor=#006600;fontColor=default;labelBackgroundColor=none;" parent="1" vertex="1">
          <mxGeometry x="1750" y="-1720" width="440" height="230" as="geometry" />
        </mxCell>
        <mxCell id="dc56x3FVuly3grsE45ck-21" value="" style="endArrow=ERone;html=1;rounded=0;startArrow=ERmany;startFill=0;endFill=0;strokeColor=#0000CC;entryX=1;entryY=0.5;entryDx=0;entryDy=0;strokeWidth=3;edgeStyle=orthogonalEdgeStyle;exitX=0.25;exitY=1;exitDx=0;exitDy=0;" parent="1" source="dc56x3FVuly3grsE45ck-17" target="dc56x3FVuly3grsE45ck-2" edge="1">
          <mxGeometry relative="1" as="geometry">
            <mxPoint x="1020" y="-1490" as="sourcePoint" />
            <mxPoint x="440" y="-1120" as="targetPoint" />
          </mxGeometry>
        </mxCell>
        <mxCell id="dc56x3FVuly3grsE45ck-22" value="" style="endArrow=ERone;html=1;rounded=0;startArrow=ERmany;startFill=0;endFill=0;strokeColor=#00994D;strokeWidth=3;entryX=0.5;entryY=1;entryDx=0;entryDy=0;exitX=0;exitY=0.75;exitDx=0;exitDy=0;edgeStyle=orthogonalEdgeStyle;" parent="1" source="5GJWT2BgU9dCmbnouzlv-10" target="dc56x3FVuly3grsE45ck-7" edge="1">
          <mxGeometry width="50" height="50" relative="1" as="geometry">
            <mxPoint x="1210" y="-1362.71" as="sourcePoint" />
            <mxPoint x="-940" y="454.64000000000124" as="targetPoint" />
          </mxGeometry>
        </mxCell>
        <mxCell id="dc56x3FVuly3grsE45ck-23" value="" style="endArrow=ERone;html=1;rounded=0;startArrow=ERmany;startFill=0;endFill=0;strokeColor=#00994D;entryX=1;entryY=0.5;entryDx=0;entryDy=0;strokeWidth=3;exitX=0;exitY=0.5;exitDx=0;exitDy=0;edgeStyle=orthogonalEdgeStyle;" parent="1" source="5GJWT2BgU9dCmbnouzlv-10" target="2ed32ef02a7f4228-2" edge="1">
          <mxGeometry relative="1" as="geometry">
            <mxPoint x="1279.81" y="-1205" as="sourcePoint" />
            <mxPoint x="-9.999999999999943" y="-1330" as="targetPoint" />
          </mxGeometry>
        </mxCell>
        <mxCell id="dc56x3FVuly3grsE45ck-24" value="" style="endArrow=ERone;html=1;rounded=0;startArrow=ERmany;startFill=0;endFill=0;strokeColor=#0000CC;strokeWidth=3;entryX=1;entryY=0.5;entryDx=0;entryDy=0;edgeStyle=orthogonalEdgeStyle;exitX=0;exitY=0.25;exitDx=0;exitDy=0;" parent="1" source="dc56x3FVuly3grsE45ck-17" target="4h8rwMEjscWDVEq-1A-V-229" edge="1">
          <mxGeometry width="50" height="50" relative="1" as="geometry">
            <mxPoint x="1310" y="-1420" as="sourcePoint" />
            <mxPoint x="-787" y="-60" as="targetPoint" />
          </mxGeometry>
        </mxCell>
        <mxCell id="OR_rdOlmmPN9_ab4CbIL-1" value="" style="endArrow=ERone;html=1;rounded=0;startArrow=ERmany;startFill=0;endFill=0;strokeColor=#FFB366;strokeWidth=3;exitX=0.25;exitY=0;exitDx=0;exitDy=0;edgeStyle=orthogonalEdgeStyle;entryX=0.75;entryY=1;entryDx=0;entryDy=0;" parent="1" source="5GJWT2BgU9dCmbnouzlv-10" target="5GJWT2BgU9dCmbnouzlv-5" edge="1">
          <mxGeometry width="50" height="50" relative="1" as="geometry">
            <mxPoint x="1460" y="-1330" as="sourcePoint" />
            <mxPoint x="1300" y="-1630" as="targetPoint" />
          </mxGeometry>
        </mxCell>
        <mxCell id="OR_rdOlmmPN9_ab4CbIL-2" value="" style="endArrow=ERone;html=1;rounded=0;startArrow=ERmany;startFill=0;endFill=0;strokeColor=#FFB366;strokeWidth=3;entryX=0;entryY=0.75;entryDx=0;entryDy=0;edgeStyle=orthogonalEdgeStyle;" parent="1" target="5GJWT2BgU9dCmbnouzlv-5" edge="1">
          <mxGeometry width="50" height="50" relative="1" as="geometry">
            <mxPoint x="220" y="-960" as="sourcePoint" />
            <mxPoint x="1240" y="-1890" as="targetPoint" />
          </mxGeometry>
        </mxCell>
        <mxCell id="OR_rdOlmmPN9_ab4CbIL-3" value="" style="endArrow=ERone;html=1;rounded=0;startArrow=ERmany;startFill=0;endFill=0;strokeColor=#FFB366;strokeWidth=3;exitX=1;exitY=0.25;exitDx=0;exitDy=0;edgeStyle=orthogonalEdgeStyle;entryX=0.106;entryY=0.993;entryDx=0;entryDy=0;entryPerimeter=0;" parent="1" source="4h8rwMEjscWDVEq-1A-V-229" target="5GJWT2BgU9dCmbnouzlv-5" edge="1">
          <mxGeometry width="50" height="50" relative="1" as="geometry">
            <mxPoint x="360" y="18" as="sourcePoint" />
            <mxPoint x="1160" y="-1900" as="targetPoint" />
            <Array as="points">
              <mxPoint x="1160" y="60" />
              <mxPoint x="1160" y="-1921" />
            </Array>
          </mxGeometry>
        </mxCell>
        <mxCell id="FYIaTPkMhNXnLdCpbv6g-1" value="&lt;div style=&quot;font-family: Verdana;&quot;&gt;&lt;b&gt;&lt;font style=&quot;font-size: 14px;&quot; face=&quot;Verdana&quot;&gt;&lt;u&gt;Заказ&lt;/u&gt;&lt;/font&gt;&lt;/b&gt;&lt;br&gt;&lt;div&gt;&lt;font face=&quot;Helvetica&quot;&gt;&lt;b&gt;&lt;br&gt;&lt;/b&gt;&lt;/font&gt;&lt;/div&gt;&lt;table style=&quot;font-weight: 700; border: 1px solid rgb(0, 0, 0); border-collapse: collapse;&quot; border=&quot;1&quot;&gt;&lt;tbody&gt;&lt;tr&gt;&lt;td&gt;&lt;font face=&quot;Helvetica&quot;&gt;order_id&lt;/font&gt;&lt;/td&gt;&lt;td&gt;&lt;font style=&quot;font-weight: normal;&quot; face=&quot;Helvetica&quot;&gt;UUID&lt;/font&gt;&lt;/td&gt;&lt;/tr&gt;&lt;tr&gt;&lt;td&gt;&lt;font face=&quot;Helvetica&quot;&gt;creation_date&lt;/font&gt;&lt;/td&gt;&lt;td&gt;&lt;font style=&quot;font-weight: normal;&quot; face=&quot;Helvetica&quot;&gt;DATE&lt;/font&gt;&lt;/td&gt;&lt;/tr&gt;&lt;tr&gt;&lt;td&gt;&lt;font face=&quot;Helvetica&quot;&gt;creation_time&lt;/font&gt;&lt;/td&gt;&lt;td&gt;&lt;font style=&quot;font-weight: normal;&quot; face=&quot;Helvetica&quot;&gt;TIME&lt;/font&gt;&lt;/td&gt;&lt;/tr&gt;&lt;/tbody&gt;&lt;/table&gt;&lt;/div&gt;&lt;table style=&quot;color: light-dark(rgb(0, 0, 0), rgb(255, 255, 255)); font-family: Verdana; width: 178px; border: 1px solid rgb(0, 0, 0); border-collapse: collapse;&quot; border=&quot;1&quot; cellpadding=&quot;2&quot; cellspacing=&quot;0&quot;&gt;&lt;tbody&gt;&lt;/tbody&gt;&lt;/table&gt;" style="ellipse;whiteSpace=wrap;html=1;fillColor=none;verticalAlign=top;strokeColor=#00994D;fontColor=default;labelBackgroundColor=none;" parent="1" vertex="1">
          <mxGeometry x="-420" y="-440" width="250" height="140" as="geometry" />
        </mxCell>
        <mxCell id="FYIaTPkMhNXnLdCpbv6g-2" value="&lt;b style=&quot;font-size: 14px;&quot;&gt;&lt;u&gt;&lt;br&gt;&lt;span style=&quot;font-family: Verdana;&quot;&gt;&lt;span style=&quot;font-family: Helvetica; color: rgb(0, 0, 0);&quot;&gt;Очередь на подтверждение&lt;br&gt;&lt;br&gt;&lt;/span&gt;&lt;/span&gt;&lt;/u&gt;&lt;/b&gt;&lt;table style=&quot;text-align: left; font-family: Verdana; font-weight: 700; border: 1px solid rgb(0, 0, 0); border-collapse: collapse;&quot; border=&quot;1&quot;&gt;&lt;tbody&gt;&lt;tr&gt;&lt;td&gt;&lt;font face=&quot;Helvetica&quot;&gt;confirmation_queue_id&lt;/font&gt;&lt;/td&gt;&lt;td&gt;&lt;span style=&quot;font-weight: 400;&quot;&gt;&lt;font face=&quot;Helvetica&quot;&gt;UUID&lt;/font&gt;&lt;/span&gt;&lt;/td&gt;&lt;/tr&gt;&lt;tr&gt;&lt;td&gt;&lt;font face=&quot;Helvetica&quot;&gt;is_confirmed&lt;/font&gt;&lt;/td&gt;&lt;td&gt;&lt;span style=&quot;font-weight: 400;&quot;&gt;&lt;font face=&quot;Helvetica&quot;&gt;BOOLEAN&lt;/font&gt;&lt;/span&gt;&lt;/td&gt;&lt;/tr&gt;&lt;/tbody&gt;&lt;/table&gt;" style="ellipse;whiteSpace=wrap;html=1;fillColor=none;verticalAlign=top;strokeColor=#000099;fontColor=default;labelBackgroundColor=none;" parent="1" vertex="1">
          <mxGeometry x="470" y="-420" width="360" height="140" as="geometry" />
        </mxCell>
      </root>
    </mxGraphModel>
  </diagram>
</mxfile>
